<svg width="48" height="31" viewBox="0 0 48 31" fill="none" xmlns="http://www.w3.org/2000/svg">
<path d="M35.7708 0.830346C34.9863 0.0527894 33.72 0.0584393 32.9424 0.842965C32.1648 1.62749 32.1705 2.89381 32.955 3.67136L37.6563 8.33085C39.5643 10.2219 40.8731 11.5233 41.7587 12.6261C42.0465 12.9844 42.271 13.2999 42.4454 13.5842L2.36291 13.5842C1.25835 13.5842 0.362915 14.4796 0.362915 15.5842C0.362915 16.6888 1.25835 17.5842 2.36291 17.5842L42.4454 17.5842C42.271 17.8684 42.0465 18.1839 41.7587 18.5423C40.8731 19.645 39.5643 20.9465 37.6563 22.8375L32.955 27.497C32.1705 28.2746 32.1648 29.5409 32.9424 30.3254C33.72 31.1099 34.9863 31.1156 35.7708 30.338L40.5568 25.5946C42.3594 23.8081 43.8326 22.3479 44.8774 21.047C45.9639 19.6941 46.7504 18.3209 46.9605 16.6726C47.0065 16.3113 47.0296 15.9477 47.0296 15.5842C47.0296 15.2207 47.0065 14.8571 46.9605 14.4958C46.7504 12.8475 45.9639 11.4743 44.8774 10.1214C43.8326 8.82041 42.3593 7.36028 40.5567 5.57375L35.7708 0.830346Z" fill="white"/>
</svg>
