<svg width="48" height="31" viewBox="0 0 48 31" fill="none" xmlns="http://www.w3.org/2000/svg">
<path d="M14.4379 3.67136C15.2224 2.89381 15.228 1.62749 14.4505 0.842965C13.6729 0.0584393 12.4066 0.0527894 11.6221 0.830345L6.83614 5.57378C5.03355 7.36029 3.56027 8.82043 2.51546 10.1214C1.42899 11.4743 0.642498 12.8475 0.432403 14.4958C0.340282 15.2185 0.340282 15.9499 0.432402 16.6726C0.642498 18.3209 1.42898 19.6941 2.51546 21.047C3.56028 22.348 5.03355 23.8081 6.83616 25.5946L11.6221 30.338C12.4066 31.1156 13.6729 31.1099 14.4505 30.3254C15.228 29.5409 15.2224 28.2746 14.4379 27.497L9.73662 22.8375C7.82863 20.9465 6.51983 19.645 5.63423 18.5423C5.34642 18.1839 5.12187 17.8684 4.94752 17.5842H45.03C46.1345 17.5842 47.03 16.6888 47.03 15.5842C47.03 14.4796 46.1345 13.5842 45.03 13.5842H4.94752C5.12187 13.2999 5.34642 12.9844 5.63423 12.6261C6.51983 11.5233 7.82863 10.2219 9.73662 8.33085L14.4379 3.67136Z" fill="white"/>
</svg>
